HIERARCHY
ROOT hip
{
  OFFSET 0 0 0
  CHANNELS 6 Xposition Yposition Zposition Zrotation Yrotation Xrotation
  JOINT abdomen
  {
    OFFSET 0 20.6881 -0.73152
    CHANNELS 3 Zrotation Xrotation Yrotation
    JOINT chest
    {
      OFFSET 0 11.7043 -0.48768
      CHANNELS 3 Zrotation Xrotation Yrotation
      JOINT neck
      {
        OFFSET 0 22.1894 -2.19456
        CHANNELS 3 Zrotation Xrotation Yrotation
        JOINT head
        {
          OFFSET -0.24384 7.07133 1.2192
          CHANNELS 3 Zrotation Xrotation Yrotation
          JOINT leftEye
          {
            OFFSET 4.14528 8.04674 8.04672
            CHANNELS 3 Zrotation Xrotation Yrotation
            End Site
            {
              OFFSET 1 0 0
            }
          }
          JOINT rightEye
          {
            OFFSET -3.6576 8.04674 8.04672
            CHANNELS 3 Zrotation Xrotation Yrotation
            End Site
            {
              OFFSET 1 0 0
            }
          }
        }
      }
      JOINT rCollar
      {
        OFFSET -2.68224 19.2634 -4.8768
        CHANNELS 3 Zrotation Xrotation Yrotation
        JOINT rShldr
        {
          OFFSET -8.77824 -1.95073 1.46304
          CHANNELS 3 Zrotation Xrotation Yrotation
          JOINT rForeArm
          {
            OFFSET -28.1742 -1.7115 0.48768
            CHANNELS 3 Zrotation Xrotation Yrotation
            JOINT rHand
            {
              OFFSET -22.5879 0.773209 7.07136
              CHANNELS 3 Zrotation Xrotation Yrotation
              JOINT rThumb1
              {
                OFFSET -1.2192 -0.487915 3.41376
                CHANNELS 3 Zrotation Xrotation Yrotation
                JOINT rThumb2
                {
                  OFFSET -3.37035 -0.52449 3.41376
                  CHANNELS 3 Zrotation Xrotation Yrotation
                  End Site
                  {
                    OFFSET -1.78271 -1.18214 1.43049
                  }
                }
              }
              JOINT rIndex1
              {
                OFFSET -7.75947 0.938293 5.60832
                CHANNELS 3 Zrotation Xrotation Yrotation
                JOINT rIndex2
                {
                  OFFSET -2.54057 -0.884171 1.56538
                  CHANNELS 3 Zrotation Xrotation Yrotation
                  End Site
                  {
                    OFFSET -1.62519 -0.234802 1.16502
                  }
                }
              }
              JOINT rMid1
              {
                OFFSET -8.24714 1.18213 3.41376
                CHANNELS 3 Zrotation Xrotation Yrotation
                JOINT rMid2
                {
                  OFFSET -3.10165 -0.590103 1.0647
                  CHANNELS 3 Zrotation Xrotation Yrotation
                  End Site
                  {
                    OFFSET -2.48547 -0.328903 0.83742
                  }
                }
              }
              JOINT rRing1
              {
                OFFSET -8.82822 0.546677 1.51678
                CHANNELS 3 Zrotation Xrotation Yrotation
                JOINT rRing2
                {
                  OFFSET -2.60934 -0.819778 -0.0198488
                  CHANNELS 3 Zrotation Xrotation Yrotation
                  End Site
                  {
                    OFFSET -2.33842 -0.294052 0.168128
                  }
                }
              }
              JOINT rPinky1
              {
                OFFSET -8.27202 -0.0477905 -0.4584
                CHANNELS 3 Zrotation Xrotation Yrotation
                JOINT rPinky2
                {
                  OFFSET -1.82734 -0.647385 -0.700984
                  CHANNELS 3 Zrotation Xrotation Yrotation
                  End Site
                  {
                    OFFSET -1.69225 -0.51767 -0.607171
                  }
                }
              }
            }
          }
        }
      }
      JOINT lCollar
      {
        OFFSET 2.68224 19.2634 -4.8768
        CHANNELS 3 Zrotation Xrotation Yrotation
        JOINT lShldr
        {
          OFFSET 8.77824 -1.95073 1.46304
          CHANNELS 3 Zrotation Xrotation Yrotation
          JOINT lForeArm
          {
            OFFSET 28.1742 -1.7115 0.48768
            CHANNELS 3 Zrotation Xrotation Yrotation
            JOINT lHand
            {
              OFFSET 22.5879 0.773209 7.07136
              CHANNELS 3 Zrotation Xrotation Yrotation
              JOINT lThumb1
              {
                OFFSET 1.2192 -0.487915 3.41376
                CHANNELS 3 Zrotation Xrotation Yrotation
                JOINT lThumb2
                {
                  OFFSET 3.37035 -0.52449 3.41376
                  CHANNELS 3 Zrotation Xrotation Yrotation
                  End Site
                  {
                    OFFSET 1.78271 -1.18214 1.43049
                  }
                }
              }
              JOINT lIndex1
              {
                OFFSET 7.75947 0.938293 5.60832
                CHANNELS 3 Zrotation Xrotation Yrotation
                JOINT lIndex2
                {
                  OFFSET 2.54057 -0.884171 1.56538
                  CHANNELS 3 Zrotation Xrotation Yrotation
                  End Site
                  {
                    OFFSET 1.62519 -0.234802 1.16502
                  }
                }
              }
              JOINT lMid1
              {
                OFFSET 8.24714 1.18213 3.41376
                CHANNELS 3 Zrotation Xrotation Yrotation
                JOINT lMid2
                {
                  OFFSET 3.10165 -0.590103 1.0647
                  CHANNELS 3 Zrotation Xrotation Yrotation
                  End Site
                  {
                    OFFSET 2.48547 -0.328903 0.83742
                  }
                }
              }
              JOINT lRing1
              {
                OFFSET 8.82822 0.546677 1.51678
                CHANNELS 3 Zrotation Xrotation Yrotation
                JOINT lRing2
                {
                  OFFSET 2.60934 -0.819778 -0.0198488
                  CHANNELS 3 Zrotation Xrotation Yrotation
                  End Site
                  {
                    OFFSET 2.33842 -0.294052 0.168128
                  }
                }
              }
              JOINT lPinky1
              {
                OFFSET 8.27202 -0.0477905 -0.4584
                CHANNELS 3 Zrotation Xrotation Yrotation
                JOINT lPinky2
                {
                  OFFSET 1.82734 -0.647385 -0.700984
                  CHANNELS 3 Zrotation Xrotation Yrotation
                  End Site
                  {
                    OFFSET 1.69225 -0.51767 -0.607171
                  }
                }
              }
            }
          }
        }
      }
    }
  }
  JOINT rButtock
  {
    OFFSET -8.77824 4.35084 1.2192
    CHANNELS 3 Zrotation Xrotation Yrotation
    JOINT rThigh
    {
      OFFSET 0 -1.70687 -2.19456
      CHANNELS 3 Zrotation Xrotation Yrotation
      JOINT rShin
      {
        OFFSET 0 -36.8199 0.73152
        CHANNELS 3 Zrotation Xrotation Yrotation
        JOINT rFoot
        {
          OFFSET 0.73152 -45.1104 -5.12064
          CHANNELS 3 Zrotation Xrotation Yrotation
          End Site
          {
            OFFSET -1.1221 -3.69964 12.103
          }
        }
      }
    }
  }
  JOINT lButtock
  {
    OFFSET 8.77824 4.35084 1.2192
    CHANNELS 3 Zrotation Xrotation Yrotation
    JOINT lThigh
    {
      OFFSET 0 -1.70687 -2.19456
      CHANNELS 3 Zrotation Xrotation Yrotation
      JOINT lShin
      {
        OFFSET 0 -36.8199 0.73152
        CHANNELS 3 Zrotation Xrotation Yrotation
        JOINT lFoot
        {
          OFFSET -0.73152 -45.1104 -5.12064
          CHANNELS 3 Zrotation Xrotation Yrotation
          End Site
          {
            OFFSET 1.1221 -3.69964 12.103
          }
        }
      }
    }
  }
}
MOTION
Frames:	7
Frame Time:	0.00833333
51.2269 100.096 105.037 175.864 -32.6625 192.294 3.15979 0.0472582 8.56197 -2.78089 -10.6117 2.19284 6.68624 10.632 9.78832 -5.52676 -28.4446 17.5769 -0.0 0.0 0.0 -0.0 0.0 0.0 1.2149e-13 -3.18685e-13 3.93276e-13 -20.3691 17.8597 34.6559 -27.8749 -41.0175 85.7787 -0.519053 20.0586 2.94099 4.31369e-10 -1.18806e-10 -4.60931e-10 7.31946e-10 -2.02976e-10 -7.97761e-10 4.3137e-10 -1.18803e-10 -4.60941e-10 7.73091 5.47488 0.417314 4.31366e-10 -1.18802e-10 -4.60933e-10 2.90554 0.965183 0.102902 4.31375e-10 -1.18801e-10 -4.60934e-10 10.2786 0.731801 0.0259123 4.31367e-10 -1.188e-10 -4.60924e-10 2.22167 -0.733487 -0.20892 1.21429e-13 -3.18683e-13 3.93108e-13 37.1388 17.8251 -77.478 27.9892 -40.4629 -84.7615 0.404851 17.848 -2.59304 -3.32029e-09 3.56838e-09 3.42083e-09 -5.69733e-09 6.03843e-09 5.95581e-09 -3.32029e-09 3.56838e-09 3.42086e-09 -7.73091 5.47488 -0.417314 -3.32028e-09 3.56838e-09 3.42084e-09 -2.90554 0.965183 -0.102902 -3.32029e-09 3.56838e-09 3.42084e-09 -10.2786 0.731801 -0.0259123 -3.32028e-09 3.56838e-09 3.42084e-09 -2.22167 -0.733487 0.20892 -2.03217e-16 0.0 -3.88251e-19 10.0687 -6.05177 18.3475 0.0716322 18.7669 0.797417 -28.8749 -35.9665 -41.53 2.03217e-16 0.0 3.88251e-19 -4.73 -10.9889 -35.2229 0.0579107 17.8065 -0.94452 17.4623 -27.3387 29.318
50.9691 101.604 104.621 175.286 -34.4306 193.196 3.50896 -1.66273 8.43856 -3.23998 -10.3787 2.06865 6.84829 10.8765 9.95733 -6.17347 -28.1914 17.7665 -0.0 0.0 0.0 -0.0 0.0 0.0 2.07353e-14 -1.38611e-13 5.51162e-13 -20.0642 19.0195 32.8725 -27.7251 -41.6929 86.9965 -0.562567 20.8442 3.06676 4.48539e-10 -1.20392e-10 -1.64638e-10 7.63879e-10 -2.05703e-10 -2.85292e-10 4.48539e-10 -1.20387e-10 -1.64649e-10 7.73091 5.47488 0.417314 4.48534e-10 -1.20388e-10 -1.64639e-10 2.90554 0.965183 0.102902 4.48543e-10 -1.20387e-10 -1.64641e-10 10.2786 0.731801 0.0259123 4.48536e-10 -1.20386e-10 -1.64631e-10 2.22167 -0.733487 -0.20892 2.07158e-14 -1.38607e-13 5.5096e-13 36.8273 18.2628 -78.7432 27.9916 -40.4431 -84.7314 0.486763 19.4551 -2.84576 -2.91547e-09 2.67648e-09 3.2292e-09 -4.99461e-09 4.49572e-09 5.61798e-09 -2.91547e-09 2.67648e-09 3.22922e-09 -7.73091 5.47488 -0.417314 -2.91547e-09 2.67648e-09 3.2292e-09 -2.90554 0.965183 -0.102902 -2.91547e-09 2.67648e-09 3.22921e-09 -10.2786 0.731801 -0.0259123 -2.91546e-09 2.67648e-09 3.22921e-09 -2.22167 -0.733487 0.20892 -2.03217e-16 0.0 -3.88251e-19 9.4815 -8.32679 16.5411 0.0701139 19.7545 0.745641 -24.6624 -28.7723 -41.3422 2.03217e-16 0.0 3.88251e-19 -5.1207 -12.0943 -33.8599 0.0555905 17.4842 -0.970177 17.7505 -30.099 28.0952
50.739 103.018 104.203 174.657 -36.377 193.956 3.93131 -3.19207 8.20299 -3.64441 -10.1746 1.91896 6.96448 11.063 10.0879 -6.86674 -28.0964 17.8593 -0.0 0.0 0.0 -0.0 0.0 0.0 -7.73038e-14 3.29179e-14 6.82407e-13 -19.616 20.1104 30.9246 -27.5712 -42.2905 88.0998 -0.611609 21.6675 3.20041 4.53999e-10 -1.1903e-10 8.97233e-11 7.75322e-10 -2.03478e-10 1.54749e-10 4.54001e-10 -1.19024e-10 8.97109e-11 7.73091 5.47488 0.417314 4.53995e-10 -1.19027e-10 8.97229e-11 2.90554 0.965183 0.102902 4.54003e-10 -1.19026e-10 8.97207e-11 10.2786 0.731801 0.0259123 4.53997e-10 -1.19025e-10 8.97303e-11 2.22167 -0.733487 -0.20892 -7.72847e-14 3.29255e-14 6.82173e-13 36.3534 18.645 -80.026 28.0055 -40.3703 -84.5991 0.587051 21.2176 -3.12873 -2.45398e-09 1.74881e-09 2.91711e-09 -4.19532e-09 2.89293e-09 5.072e-09 -2.45399e-09 1.7488e-09 2.91712e-09 -7.73091 5.47488 -0.417314 -2.45398e-09 1.7488e-09 2.91711e-09 -2.90554 0.965183 -0.102902 -2.45398e-09 1.7488e-09 2.91711e-09 -10.2786 0.731801 -0.0259123 -2.45397e-09 1.74881e-09 2.91711e-09 -2.22167 -0.733487 0.20892 -2.03217e-16 0.0 -3.88251e-19 8.7184 -10.9216 14.1019 0.0684563 20.9321 0.675568 -19.0164 -20.1823 -41.464 2.03217e-16 0.0 3.88251e-19 -5.33001 -13.4247 -31.8645 0.0572282 17.1952 -0.972596 16.7057 -31.5717 25.8523
50.6402 104.627 104.443 174.275 -38.2032 196.098 4.33142 -4.17469 7.81591 -3.83542 -9.97532 1.76332 7.03171 11.1214 10.1627 -7.54638 -27.9898 17.8377 -0.0 0.0 0.0 -0.0 0.0 0.0 -1.23841e-13 8.79576e-14 7.28546e-13 -18.9365 21.2161 28.8165 -27.4261 -42.7548 89.0173 -0.65688 22.3867 3.31862 3.89495e-10 -1.16904e-10 2.04001e-10 6.64549e-10 -1.99885e-10 3.53736e-10 3.89497e-10 -1.16898e-10 2.03988e-10 7.73091 5.47488 0.417314 3.89491e-10 -1.16902e-10 2.04001e-10 2.90554 0.965183 0.102902 3.89499e-10 -1.16901e-10 2.03998e-10 10.2786 0.731801 0.0259123 3.89492e-10 -1.169e-10 2.04007e-10 2.22167 -0.733487 -0.20892 -1.23803e-13 8.79677e-14 7.28297e-13 35.7962 18.8318 -81.3234 28.0328 -40.2378 -84.3488 0.700448 23.0681 -3.43139 -2.17999e-09 1.26578e-09 2.60881e-09 -3.72161e-09 2.05547e-09 4.53692e-09 -2.18e-09 1.26577e-09 2.60883e-09 -7.73091 5.47488 -0.417314 -2.17999e-09 1.26578e-09 2.60881e-09 -2.90554 0.965183 -0.102902 -2.17999e-09 1.26577e-09 2.60881e-09 -10.2786 0.731801 -0.0259123 -2.17998e-09 1.26578e-09 2.60881e-09 -2.22167 -0.733487 0.20892 -2.03217e-16 0.0 -3.88251e-19 8.16147 -12.7093 12.5232 0.0681009 21.7154 0.620007 -14.6486 -14.0677 -42.0061 2.03217e-16 0.0 3.88251e-19 -5.40956 -14.3895 -30.3218 0.058304 17.0029 -0.972711 16.0054 -32.3231 24.5232
50.5512 105.882 103.825 173.934 -40.5524 195.925 4.71069 -4.45617 7.23855 -3.74024 -9.73491 1.60575 7.05075 11.0168 10.1656 -8.24401 -27.9048 17.6555 -0.0 0.0 0.0 -0.0 0.0 0.0 -8.31836e-14 -8.29697e-14 6.69014e-13 -17.9794 22.3586 26.4638 -27.307 -43.0967 89.7192 -0.698881 23.0418 3.42705 3.38162e-10 -1.11017e-10 -4.90283e-11 5.71487e-10 -1.90326e-10 -8.20627e-11 3.38165e-10 -1.11014e-10 -4.904e-11 7.73091 5.47488 0.417314 3.38159e-10 -1.11016e-10 -4.90289e-11 2.90554 0.965183 0.102902 3.38167e-10 -1.11015e-10 -4.90309e-11 10.2786 0.731801 0.0259123 3.38158e-10 -1.11014e-10 -4.90236e-11 2.22167 -0.733487 -0.20892 -8.31573e-14 -8.29575e-14 6.68781e-13 35.1155 18.7162 -82.6393 28.0779 -40.0075 -83.9172 0.842254 25.2481 -3.79553 -2.48605e-09 1.94316e-09 2.38099e-09 -4.24987e-09 3.19868e-09 4.15437e-09 -2.48606e-09 1.94315e-09 2.381e-09 -7.73091 5.47488 -0.417314 -2.48605e-09 1.94315e-09 2.38099e-09 -2.90554 0.965183 -0.102902 -2.48605e-09 1.94315e-09 2.38099e-09 -10.2786 0.731801 -0.0259123 -2.48604e-09 1.94316e-09 2.38098e-09 -2.22167 -0.733487 0.20892 -2.03217e-16 0.0 -3.88251e-19 8.15814 -13.3122 12.1522 0.0661203 21.9185 0.58451 -12.1266 -11.0 -42.0214 2.03217e-16 0.0 3.88251e-19 -5.38129 -14.8583 -29.3623 0.0588614 16.98 -0.970011 15.9464 -31.9876 24.6232
50.6283 107.149 103.445 174.057 -42.7866 196.192 5.12287 -4.24851 6.49807 -3.45332 -9.47927 1.43628 7.02308 10.792 10.1097 -8.97501 -27.9049 17.3363 -0.0 0.0 0.0 -0.0 0.0 0.0 1.10873e-14 -3.95396e-13 5.3665e-13 -16.7839 23.4745 23.8791 -27.2225 -43.3537 90.2175 -0.741077 23.6826 3.534 2.9818e-10 -1.01397e-10 -5.5e-10 4.94706e-10 -1.74739e-10 -9.46458e-10 2.98185e-10 -1.01399e-10 -5.5001e-10 7.73091 5.47488 0.417314 2.9818e-10 -1.01397e-10 -5.50002e-10 2.90554 0.965183 0.102902 2.98187e-10 -1.01397e-10 -5.50003e-10 10.2786 0.731801 0.0259123 2.98175e-10 -1.01394e-10 -5.49998e-10 2.22167 -0.733487 -0.20892 1.10841e-14 -3.95382e-13 5.36451e-13 34.2706 18.3952 -83.9294 28.1321 -39.6899 -83.342 1.02808 27.7058 -4.22433 -3.13279e-09 3.32883e-09 2.15285e-09 -5.36703e-09 5.55059e-09 3.77979e-09 -3.1328e-09 3.32883e-09 2.15286e-09 -7.73091 5.47488 -0.417314 -3.1328e-09 3.32883e-09 2.15285e-09 -2.90554 0.965183 -0.102902 -3.1328e-09 3.32883e-09 2.15285e-09 -10.2786 0.731801 -0.0259123 -3.13279e-09 3.32883e-09 2.15284e-09 -2.22167 -0.733487 0.20892 -2.03217e-16 0.0 -3.88251e-19 8.4894 -13.3418 12.2068 0.0618489 21.863 0.55289 -10.1472 -8.89999 -41.487 2.03217e-16 0.0 3.88251e-19 -5.23433 -15.1246 -28.4578 0.0610314 17.0741 -0.955389 15.742 -30.4109 25.1338
50.5781 108.344 102.996 174.0 -45.5697 195.975 5.55795 -3.7345 5.65311 -3.06743 -9.29263 1.25331 6.94651 10.4938 10.0214 -9.65442 -27.8665 16.9668 -0.0 0.0 0.0 -0.0 0.0 0.0 1.0385e-13 -6.66347e-13 3.53097e-13 -15.3928 24.5268 21.2168 -27.1758 -43.5103 90.499 -0.775168 24.182 3.61817 8.38569e-11 -9.47674e-11 -8.77186e-10 1.2044e-10 -1.6352e-10 -1.5082e-09 8.38618e-11 -9.47741e-11 -8.77194e-10 7.73091 5.47488 0.417314 8.38584e-11 -9.47689e-11 -8.77189e-10 2.90554 0.965183 0.102902 8.38652e-11 -9.47692e-11 -8.77189e-10 10.2786 0.731801 0.0259123 8.38502e-11 -9.47646e-11 -8.77185e-10 2.22167 -0.733487 -0.20892 1.03811e-13 -6.66332e-13 3.52932e-13 33.342 18.047 -85.1258 28.1804 -39.3533 -82.7543 1.22958 29.9345 -4.6358 -3.41649e-09 4.15143e-09 1.81248e-09 -5.86099e-09 6.95568e-09 3.2029e-09 -3.41649e-09 4.15143e-09 1.81249e-09 -7.73091 5.47488 -0.417314 -3.41649e-09 4.15143e-09 1.81249e-09 -2.90554 0.965183 -0.102902 -3.41649e-09 4.15143e-09 1.81248e-09 -10.2786 0.731801 -0.0259123 -3.41648e-09 4.15143e-09 1.81247e-09 -2.22167 -0.733487 0.20892 -2.03217e-16 0.0 -3.88251e-19 8.93025 -13.1262 12.5123 0.0568819 21.7261 0.52623 -8.64934 -7.37816 -40.8256 2.03217e-16 0.0 3.88251e-19 -5.07238 -15.2076 -27.7144 0.063116 17.161 -0.936783 15.4813 -28.5659 25.762
